<svg id="Layer_1" data-name="Layer 1" xmlns="http://www.w3.org/2000/svg" viewBox="0 0 608.1 124.6"><defs><style>.cls-1{fill:#5253a3;}.cls-2{fill:#f89420;}.cls-3{fill:#2b54a2;}.cls-4{fill:#ef7b39;}</style></defs><path class="cls-1" d="M83.6,92.9C67.5,83,55.8,67.5,47,51.1A95.6,95.6,0,0,1,35.8,19.2c-.4-5.6,0-12.6,5.2-16A13.4,13.4,0,0,1,53.4,4.7,9.4,9.4,0,0,0,44,11.8c-2.6,10,.8,20.2,4.1,29.6,8.2,21.3,21.6,41.4,40.6,54.3"/><path class="cls-1" d="M82.8,96.3A98.8,98.8,0,0,1,30.3,75.5,98.1,98.1,0,0,1,6.9,52.1c-2.6-4.4-5.5-9.8-3.2-15s7.7-4.8,12-5.4a11,11,0,0,0-5.2,11.8c1.6,7.3,6.7,13.1,11.6,18.4A131.3,131.3,0,0,0,79.3,95.4"/><path class="cls-1" d="M24.6,76.2A55,55,0,0,0,53,100.9a70.9,70.9,0,0,0,37.9,3.2c12.1-2.3,23.9-8.8,30-19.8L122,84c2.7,7.4,6.4,14.4,8.8,21.9a56.4,56.4,0,0,1-39.9,16.6,72.7,72.7,0,0,1-40.8-9.8A54.6,54.6,0,0,1,24.6,76.2Z"/><path class="cls-2" d="M47.6,15.5a73.8,73.8,0,0,1,79.4-.8,8.7,8.7,0,0,1,2.7,2.3c-3.6,8-6.4,16.4-9.6,24.7a56.6,56.6,0,0,0-17.7-10.8,39.1,39.1,0,0,0-31.1,1.7A37.1,37.1,0,0,0,54.9,50.1a79,79,0,0,1-9.1-30.8A3.9,3.9,0,0,1,47.6,15.5Z"/><path class="cls-2" d="M80.4,94C62.2,87.2,47.2,73.9,34.1,59.7A71,71,0,0,1,18.2,30.3c-.7-4.4-.8-9.7,2.8-13.1a15.8,15.8,0,0,1,10.7-1.7c.4,2.4-3.4,2.1-4,4.2-3.6,5.7-1.7,12.6.5,18.4,7,16.6,19.3,30.1,32.9,41.8A87.1,87.1,0,0,0,84.3,94.4c1,.3,1.8,1.2,2.7,1.6"/><path d="M156.7,118.8a6.6,6.6,0,0,1-2.4-2.3,5.8,5.8,0,0,1-.8-3.3v-6.7a6.3,6.3,0,0,1,.8-3.4,5.7,5.7,0,0,1,2.4-2.2,8,8,0,0,1,3.6-.8,7.8,7.8,0,0,1,3.5.8,6.1,6.1,0,0,1,2.4,2.1,5.7,5.7,0,0,1,.8,3.2.4.4,0,0,1-.1.3h-.2l-2.5.2a.3.3,0,0,1-.3-.3,3.4,3.4,0,0,0-1-2.6,3.8,3.8,0,0,0-2.6-1,3.5,3.5,0,0,0-2.7,1,3.4,3.4,0,0,0-1,2.6v6.9a3.4,3.4,0,0,0,1,2.6,4,4,0,0,0,2.7.9,3.7,3.7,0,0,0,2.6-.9,3.4,3.4,0,0,0,1-2.6.3.3,0,0,1,.3-.3h2.7c.1.1.1.1.1.2a5.7,5.7,0,0,1-3.2,5.4,7.8,7.8,0,0,1-3.5.8A8,8,0,0,1,156.7,118.8Z"/><path d="M175.5,118.8a5.1,5.1,0,0,1-2.4-2.4,6.5,6.5,0,0,1-.9-3.5v-6.1a6.8,6.8,0,0,1,.9-3.5,5.9,5.9,0,0,1,2.4-2.3,7.6,7.6,0,0,1,7.2,0,5.6,5.6,0,0,1,2.5,2.3,7.8,7.8,0,0,1,.8,3.5v6.1a7.5,7.5,0,0,1-.8,3.5,5.8,5.8,0,0,1-2.5,2.4,8.5,8.5,0,0,1-7.2,0Zm6.3-3a3.7,3.7,0,0,0,1.1-2.7v-6.4a3.9,3.9,0,0,0-1.1-2.8,4.1,4.1,0,0,0-5.4,0,3.9,3.9,0,0,0-1.1,2.8v6.4a3.7,3.7,0,0,0,1.1,2.7,3.9,3.9,0,0,0,5.4,0Z"/><path d="M202.9,100.4h3c0,.1.1.2.1.3v18.5h-2.7c-.2,0-.3,0-.4-.2L195,106.3h-.1V119c0,.1,0,.2-.1.2h-2.9c-.1,0-.1-.1-.1-.2V100.7a.4.4,0,0,1,.1-.3h2.6l.4.2,7.8,12.9h.1V100.7A.4.4,0,0,1,202.9,100.4Z"/><path d="M224.9,100.4c0,.1.1.2.1.3v2.1c0,.1,0,.1-.1.2h-5.2c-.1,0-.2,0-.2.1V119c0,.1,0,.2-.1.2h-2.9c-.1,0-.1-.1-.1-.2V103.2c0-.1-.1-.1-.2-.1h-5c-.1-.1-.1-.1-.1-.2v-2.1a.4.4,0,0,1,.1-.3h13.7Z"/><path d="M242.9,103h-9.5c-.1,0-.1,0-.1.1v5.1c0,.1,0,.1.1.1h6.5v2.3a.3.3,0,0,1-.1.2h-6.5c-.1,0-.1.1-.1.2v5.2c0,.1,0,.2.1.2h9.5c.1,0,.1.1.1.2v2a.4.4,0,0,1-.1.3H230.2V100.7a.3.3,0,0,1,.1-.2h12.7c.1,0,.1.1.1.2v2.1A.3.3,0,0,1,242.9,103Z"/><path d="M259.6,100.4h2.9a.4.4,0,0,1,.1.3V119c0,.1,0,.2-.1.2h-2.6c-.2,0-.3,0-.4-.2l-7.8-12.8h-.1V119c0,.1,0,.2-.1.2h-2.9c-.1,0-.1-.1-.1-.2V100.7a.4.4,0,0,1,.1-.3h2.6a.5.5,0,0,1,.4.2l7.8,12.9h.1V100.7A.4.4,0,0,1,259.6,100.4Z"/><path d="M281.6,100.4c0,.1.1.2.1.3v2.1c0,.1-.1.1-.1.2h-5.3a.1.1,0,0,0-.1.1V119c0,.1,0,.2-.1.2h-3v-16c0-.1-.1-.1-.2-.1h-5c-.1-.1-.1-.1-.1-.2v-2.1a.4.4,0,0,1,.1-.3h13.7Z"/><path d="M307.1,100.4h2.7c.1,0,.1.1.1.2V119a.4.4,0,0,1-.1.3h-2.9a.4.4,0,0,1-.1-.3V106.1h-.2l-3.4,5.2c-.1.2-.2.3-.4.3h-1.2c-.2,0-.3-.1-.4-.3l-3.4-5.1h-.2V119a.4.4,0,0,1-.1.3h-2.9a.4.4,0,0,1-.1-.3V100.7c0-.1,0-.2.1-.2h2.7c.2,0,.3,0,.4.2l4.4,6.7h.2l4.4-6.7C306.8,100.4,306.9,100.4,307.1,100.4Z"/><path d="M327.6,119.1l-.9-2.9h-7.5l-.8,2.9c-.1.2-.2.2-.4.2h-3V119l5.9-18.4.4-.2h3.3l.4.2,5.9,18.4h0a.3.3,0,0,1-.3.3h-2.7C327.7,119.3,327.6,119.3,327.6,119.1Zm-7.4-5.5h5.5c.1,0,.1-.1.1-.2l-2.8-9.1h-.1l-2.8,9.1C320.1,113.5,320.1,113.6,320.2,113.6Z"/><path d="M347.1,100.4h3c0,.1.1.2.1.3v18.5h-2.7c-.1,0-.3,0-.3-.2l-7.8-12.8h-.2v13h-3c-.1,0-.1-.1-.1-.2V100.7a.4.4,0,0,1,.1-.3h2.6l.4.2,7.8,12.9h.1c.1,0,.1,0,.1-.1V100.7C347,100.6,347.1,100.5,347.1,100.4Z"/><path d="M367.8,119.1l-.9-2.9a.1.1,0,0,0-.1-.1h-7.2a.1.1,0,0,0-.1.1l-.9,2.9c-.1.2-.2.2-.4.2h-2.9a.2.2,0,0,1,0-.3l5.8-18.4.4-.2h3.4c.2,0,.3.1.3.2l5.9,18.4h.1a.3.3,0,0,1-.3.3h-2.7C368,119.3,367.9,119.3,367.8,119.1Zm-7.4-5.5h5.5c.2,0,.2-.1.2-.2l-2.8-9.1h-.2l-2.8,9.1C360.3,113.5,360.3,113.6,360.4,113.6Z"/><path d="M378.5,118.8a6.6,6.6,0,0,1-2.4-2.3,7.4,7.4,0,0,1-.8-3.4v-6.5a7.1,7.1,0,0,1,.8-3.4,6.6,6.6,0,0,1,2.4-2.3,8,8,0,0,1,3.6-.8,7.8,7.8,0,0,1,3.5.8,6.4,6.4,0,0,1,2.4,2.2,5.2,5.2,0,0,1,.8,3v.2a.4.4,0,0,1-.1.3h-2.9a.4.4,0,0,1-.1-.3h0a3,3,0,0,0-1-2.4,3.6,3.6,0,0,0-2.6-1,4.1,4.1,0,0,0-2.7,1,3.6,3.6,0,0,0-1,2.7v6.7a3.7,3.7,0,0,0,1.1,2.7,4,4,0,0,0,2.7.9,3.5,3.5,0,0,0,2.6-.8,3.2,3.2,0,0,0,.9-2.4V112c0-.1,0-.2-.1-.2H382c-.1,0-.1-.1-.1-.2v-2c0-.1,0-.2.1-.2h6.7c.1,0,.1.1.1.2V113a6.3,6.3,0,0,1-1.8,4.8,6.7,6.7,0,0,1-4.9,1.8A8,8,0,0,1,378.5,118.8Z"/><path d="M407.4,103h-9.5c-.1,0-.1,0-.1.1v5.1c0,.1,0,.1.1.1h6.5v2.3a.3.3,0,0,1-.1.2h-6.5c-.1,0-.1.1-.1.2v5.2c0,.1,0,.2.1.2h9.5c.1,0,.1.1.1.2v2a.4.4,0,0,1-.1.3H394.7V100.7a.3.3,0,0,1,.1-.2h12.7c.1,0,.1.1.1.2v2.1A.3.3,0,0,1,407.4,103Z"/><path d="M425.6,100.4h2.7a.3.3,0,0,1,.1.2v18.6h-3V106.1h-.1l-3.4,5.2a.5.5,0,0,1-.4.3H420a.3.3,0,0,1-.3-.3l-3.5-5.1h-.1v13.2h-3V100.7a.3.3,0,0,1,.1-.2h2.8c.1,0,.2,0,.3.2l4.5,6.7h.1l4.5-6.7C425.3,100.4,425.4,100.4,425.6,100.4Z"/><path d="M447.4,103h-9.5c-.1,0-.2,0-.2.1v5.1c0,.1.1.1.2.1h6.4a.4.4,0,0,1,.1.3v2c0,.1,0,.2-.1.2h-6.4l-.2.2v5.2l.2.2h9.5v2.5H434.7a.4.4,0,0,1-.1-.3V100.7c0-.1,0-.2.1-.2h12.7a.3.3,0,0,1,.1.2V103Z"/><path d="M464,100.4h3a.4.4,0,0,1,.1.3V119c0,.1,0,.2-.1.2h-2.6c-.2,0-.3,0-.4-.2l-7.8-12.8h-.1c-.1,0-.1.1-.1.2v12.8h-3c-.1,0-.1-.1-.1-.2V100.7a.4.4,0,0,1,.1-.3h2.7l.3.2,7.8,12.9h.1c.1,0,.1,0,.1-.1V100.4Z"/><path d="M486,100.4a.4.4,0,0,1,.1.3v2.1c0,.1,0,.1-.1.2h-5.2c-.1,0-.1,0-.1.1v16h-3c-.1,0-.1-.1-.1-.2V103.2c0-.1,0-.1-.1-.1h-5.1v-2.6H486Z"/><path d="M501.4,118.9A5.2,5.2,0,0,1,499,117a4.8,4.8,0,0,1-.9-2.9v-.7c0-.1,0-.1.1-.2h2.9c0,.1.1.1.1.2v.5a2.5,2.5,0,0,0,1.1,2.1,4.5,4.5,0,0,0,3,.9,3.6,3.6,0,0,0,2.5-.8,2,2,0,0,0,.9-1.8,2.1,2.1,0,0,0-.5-1.3,4.8,4.8,0,0,0-1.3-.9,18.3,18.3,0,0,0-2.6-1.1l-3.1-1.3a8.2,8.2,0,0,1-2-1.7,4.9,4.9,0,0,1,1-6.5,7.2,7.2,0,0,1,4.6-1.4,8,8,0,0,1,3.6.8,5.1,5.1,0,0,1,2.4,1.9,5,5,0,0,1,.9,2.9v.5c0,.1,0,.2-.1.2h-2.9c-.1,0-.1-.1-.1-.2v-.3a2.7,2.7,0,0,0-1-2.2,4.4,4.4,0,0,0-2.9-.9,3.7,3.7,0,0,0-2.3.7,2,2,0,0,0-.9,1.7,2.2,2.2,0,0,0,.5,1.4,3.6,3.6,0,0,0,1.3.9l2.6,1.1a26.5,26.5,0,0,1,3.1,1.3,5.5,5.5,0,0,1,2,1.7,3.8,3.8,0,0,1,.8,2.6,4.6,4.6,0,0,1-1.8,3.9,7.4,7.4,0,0,1-4.9,1.5A10.2,10.2,0,0,1,501.4,118.9Z"/><path d="M521.3,119.2c-.1,0-.1-.1-.1-.2v-7.3h0l-5.6-10.9a.1.1,0,0,1-.1-.1c0-.2.1-.2.3-.2h2.7c.2,0,.3,0,.4.2l3.8,7.6h.2l3.8-7.6c.1-.2.2-.2.4-.2H530c.1,0,.1.1,0,.2l-5.6,10.9h0v7.5h-3Z"/><path d="M537,118.9a6.2,6.2,0,0,1-2.5-1.9,5.5,5.5,0,0,1-.8-2.9v-.7c0-.1,0-.1.1-.2s.1-.1.2-.1h2.7c0,.1.1.1.1.2v.5a2.3,2.3,0,0,0,1.1,2.1,4.5,4.5,0,0,0,3,.9,3.7,3.7,0,0,0,2.5-.8,1.9,1.9,0,0,0,.8-1.8,2,2,0,0,0-.4-1.3l-1.3-.9-2.6-1.1-3.1-1.3a6.7,6.7,0,0,1-2-1.7,4.6,4.6,0,0,1-.8-2.7,4.7,4.7,0,0,1,1.7-3.8,7.5,7.5,0,0,1,4.7-1.4,8.6,8.6,0,0,1,3.6.8,5.7,5.7,0,0,1,2.4,1.9,5,5,0,0,1,.9,2.9v.7h-2.9c-.1,0-.1-.1-.1-.2v-.3a2.8,2.8,0,0,0-1.1-2.2,4.6,4.6,0,0,0-5.2-.2,2.4,2.4,0,0,0-.4,3.1l1.3.9,2.7,1.1,3.1,1.3a6.5,6.5,0,0,1,2,1.7,4.5,4.5,0,0,1,.8,2.6,4.6,4.6,0,0,1-1.8,3.9,7.5,7.5,0,0,1-4.9,1.5A9.8,9.8,0,0,1,537,118.9Z"/><path d="M565.2,100.4c0,.1.1.2.1.3v2.1c0,.1-.1.1-.1.2H560c-.1,0-.2,0-.2.1V119c0,.1,0,.2-.1.2h-2.9c-.1,0-.1-.1-.1-.2V103.2c0-.1-.1-.1-.2-.1h-5c-.1-.1-.1-.1-.1-.2v-2.1a.4.4,0,0,1,.1-.3h13.7Z"/><path d="M583.2,103h-9.5c-.1,0-.1,0-.1.1v5.1c0,.1,0,.1.1.1h6.5v2.3a.3.3,0,0,1-.1.2h-6.5c-.1,0-.1.1-.1.2v5.2c0,.1,0,.2.1.2h9.5c.1,0,.1.1.1.2v2a.4.4,0,0,1-.1.3H570.5V100.7a.3.3,0,0,1,.1-.2h12.7c.1,0,.1.1.1.2v2.1A.3.3,0,0,1,583.2,103Z"/><path d="M601.4,100.4h2.7c.1,0,.1.1.1.2V119a.4.4,0,0,1-.1.3h-3V106.1h-.1l-3.4,5.2c-.1.2-.2.3-.4.3h-1.3l-.3-.3-3.5-5.1h-.1V119a.4.4,0,0,1-.1.3h-3V100.7a.3.3,0,0,1,.1-.2h2.8c.1,0,.3,0,.3.2l4.5,6.7h.2l4.4-6.7C601.1,100.4,601.2,100.4,601.4,100.4Z"/><path class="cls-3" d="M174.3,78.7c-13.8,0-20.9-9.8-21.2-29.1s7-28.8,21-29.1c11.1,0,17.6,6,19.6,18.2H181.2c-1.4-3.8-3.8-5.8-7.4-5.8-6,0-9.1,5.6-9.1,16.7s3.2,16.8,9.6,16.7c2.7,0,5-1.4,6.9-4.1a4.7,4.7,0,0,1,3.9-2h8.6C191.7,71.7,184.9,79,174.3,78.7Z"/><path class="cls-3" d="M211.4,41.6V77.4H199.7v-33c0-16,6.6-23.9,19.6-23.9,5.9,0,10.4,1.6,13.7,4.8,3.2-3.1,7.7-4.6,13.6-4.6,13,0,19.5,8,19.4,24V77.6h-6c-3.8-.3-5.7-2.5-5.7-7V41.8c-.2-5.8-2.8-8.7-7.9-8.7s-7.7,2.9-7.8,8.7V77.4H227.1V41.6c-.3-5.9-2.9-8.7-8-8.7S211.5,35.7,211.4,41.6Z"/><path class="cls-3" d="M292.6,67.2c4.8,0,7.2-1.7,7.2-5.3s-4-5.2-11.8-6.9c-10.1-2.2-15.3-7.7-15.4-16.5,0-12.1,7.8-17.8,18.2-18,5.9,0,10.6,1.6,14,4.7s5.2,7.9,5.4,13.7H303c-2.7-.1-4.4-1.3-5.1-3.5s-3.1-3.8-6.9-3.8-6.7,1.5-6.7,4.3,2.9,5.1,8.9,6.5q11.6,2.9,15.3,7.2a15.6,15.6,0,0,1,3.2,10c0,13.7-8.8,18.8-20.9,18.8-6.4,0-11.2-1.7-14.3-5s-5.2-8-5.2-14.5h11.8C283.3,65.1,287,67.2,292.6,67.2Z"/><path class="cls-3" d="M326.5,66.3V77.4h-9.8v-7c0-2.8,1.2-4.1,3.7-4.1Z"/><path class="cls-4" d="M353.4,78.7c-13.8,0-20.9-9.8-21.3-29.1s7-28.8,21.1-29.1c11,0,17.6,6,19.6,18.2H360.3c-1.4-3.8-3.8-5.8-7.4-5.8-6.1,0-9.1,5.6-9.1,16.7s3.2,16.8,9.6,16.7c2.6,0,5-1.4,6.9-4.1a4.7,4.7,0,0,1,3.9-2h8.6C370.7,71.7,364,79,353.4,78.7Z"/><path class="cls-4" d="M420,49.6c0,19.3-7,29.1-20.8,29.1s-20.7-9.8-20.7-29.1,6.9-29.1,20.7-29.1S420,30.1,420,49.6Zm-29.9,0c.1,10.9,3.1,16.4,9,16.4s8.8-5.7,8.9-16.8-3-16.3-8.8-16.3S390.1,38.5,390.1,49.6Z"/><path class="cls-4" d="M437.1,41.6V77.4H425.5v-33c0-16,6.5-23.9,19.6-23.9,5.8,0,10.3,1.6,13.6,4.8,3.3-3.1,7.7-4.6,13.6-4.6,13,0,19.5,8,19.4,24V77.6h-5.9c-3.8-.3-5.7-2.5-5.7-7V41.8c-.3-5.8-2.9-8.7-8-8.7s-7.6,2.9-7.7,8.7V77.4H452.8V41.6c-.2-5.9-2.8-8.7-7.9-8.7S437.2,35.7,437.1,41.6Z"/><path class="cls-4" d="M508.1,66.3V77.4h-9.7v-7c0-2.8,1.2-4.1,3.7-4.1Z"/><path class="cls-4" d="M525.6,29.2c3-5.9,7.3-8.7,13-8.7,12.1.5,18.2,10.3,18.2,29.3s-7.1,28.1-21.3,28.4S514.1,70,514.1,53.1V5.3h5.8c3.8,0,5.7,2.5,5.7,7.1V29.2Zm0,20c-.1,11.3,3,17.1,9.6,17.1s9.8-5.8,9.8-17.1-3.4-16.1-9.6-16.1S526,38.4,525.6,49.2Z"/><path class="cls-4" d="M604,12.4V53.1c0,16.9-7.1,25.2-21.4,25.1s-21.2-9.7-21.2-28.4,6-28.8,18.2-29.3c5.7,0,10.1,2.8,13,8.7V5.3h5.7C601.4,5.3,604,8.6,604,12.4ZM573.2,49.2c-.1,11.3,3.1,17.1,9.6,17.1s9.8-5.8,9.8-17.1-3.4-16.1-9.6-16.1S573.6,38.4,573.2,49.2Z"/></svg>